<mxfile host="app.diagrams.net" agent="Mozilla/5.0 (Macintosh; Intel Mac OS X 10_15_7) AppleWebKit/537.36 (KHTML, like Gecko) Chrome/133.0.0.0 Safari/537.36" version="26.1.0">
  <diagram name="第 1 页" id="_uwEegbAkYUp1Xajobmv">
    <mxGraphModel dx="954" dy="630" grid="1" gridSize="10" guides="1" tooltips="1" connect="1" arrows="1" fold="1" page="1" pageScale="1" pageWidth="827" pageHeight="1169" math="0" shadow="0">
      <root>
        <mxCell id="0" />
        <mxCell id="1" parent="0" />
        <mxCell id="nVPp8CA3eLwUYSN4PBXE-1" value="" style="shape=image;verticalLabelPosition=bottom;labelBackgroundColor=default;verticalAlign=top;aspect=fixed;imageAspect=0;editableCssRules=.*;image=data:image/svg+xml,PHN2ZyB4bWxuczp4bGluaz0iaHR0cDovL3d3dy53My5vcmcvMTk5OS94bGluayIgeG1sbnM9Imh0dHA6Ly93d3cudzMub3JnLzIwMDAvc3ZnIiB2ZXJzaW9uPSIxLjEiIGhlaWdodD0iNzkxLjk4NjYzMzMwMDc4MTIiIHdpZHRoPSI0NDcuODc3NjI0NTExNzE4NzUiIGlkPSJTdmdqc1N2ZzI2MTIiIHZpZXdCb3g9Ii0wLjc1IC0wLjc1IDQ0Ny44Nzc2MjQ1MTE3MTg3NSA3OTEuOTg2NjMzMzAwNzgxMiI+PGRlZnMgaWQ9IlN2Z2pzRGVmczI2MTMiPjxwYXR0ZXJuIGhlaWdodD0iMzAwIiB3aWR0aD0iMzAwIiBpZD0icGF0dGVybl9tYXJrXzAiIHBhdHRlcm5Vbml0cz0idXNlclNwYWNlT25Vc2UiPjx0ZXh0IHN0eWxlPSJkb21pbmFudC1iYXNlbGluZTogbWlkZGxlOyB0ZXh0LWFuY2hvcjogbWlkZGxlOyIgdHJhbnNmb3JtPSJyb3RhdGUoLTQ1LCAxNTAsIDE1MCkiIGZvbnQtc2l6ZT0iMTgiIGZpbGw9InJnYmEoMjI5LDIyOSwyMjksMC44KSIgeT0iMTAwIiB4PSIxNTAiLz48L3BhdHRlcm4+PHBhdHRlcm4gaGVpZ2h0PSIzMDAiIHdpZHRoPSIzMDAiIGlkPSJwYXR0ZXJuX21hcmtfMSIgcGF0dGVyblVuaXRzPSJ1c2VyU3BhY2VPblVzZSI+PHRleHQgc3R5bGU9ImRvbWluYW50LWJhc2VsaW5lOiBtaWRkbGU7IHRleHQtYW5jaG9yOiBtaWRkbGU7IiB0cmFuc2Zvcm09InJvdGF0ZSgtNDUsIDE1MCwgMTUwKSIgZm9udC1zaXplPSIxOCIgZmlsbD0icmdiYSgyMjksMjI5LDIyOSwwLjgpIiB5PSIyMDAiIHg9IjE1MCIvPjwvcGF0dGVybj48bWFya2VyIHN0cm9rZS1kYXNoYXJyYXk9IjAsMCIgbWFya2VyVW5pdHM9InVzZXJTcGFjZU9uVXNlIiBvcmllbnQ9ImF1dG8iIHZpZXdCb3g9IjAgMCAxMyA5IiByZWZZPSI0LjUiIHJlZlg9IjkuNSIgbWFya2VySGVpZ2h0PSI5IiBtYXJrZXJXaWR0aD0iMTMiIGlkPSJTdmdqc01hcmtlcjI2MzEiPjxwYXRoIHN0cm9rZS13aWR0aD0iMSIgc3Ryb2tlPSIjMzIzMjMyIiBmaWxsPSIjMzIzMjMyIiBkPSJNMCwwIEwxMyw0LjUgTDAsOSBMMCwwIiBpZD0iU3ZnanNQYXRoMjYzMiIvPjwvbWFya2VyPjxtYXJrZXIgc3Ryb2tlLWRhc2hhcnJheT0iMCwwIiBtYXJrZXJVbml0cz0idXNlclNwYWNlT25Vc2UiIG9yaWVudD0iYXV0byIgdmlld0JveD0iMCAwIDEzIDkiIHJlZlk9IjQuNSIgcmVmWD0iOS41IiBtYXJrZXJIZWlnaHQ9IjkiIG1hcmtlcldpZHRoPSIxMyIgaWQ9IlN2Z2pzTWFya2VyMjY0MSI+PHBhdGggc3Ryb2tlLXdpZHRoPSIxIiBzdHJva2U9IiMzMjMyMzIiIGZpbGw9IiMzMjMyMzIiIGQ9Ik0wLDAgTDEzLDQuNSBMMCw5IEwwLDAiIGlkPSJTdmdqc1BhdGgyNjQyIi8+PC9tYXJrZXI+PG1hcmtlciBzdHJva2UtZGFzaGFycmF5PSIwLDAiIG1hcmtlclVuaXRzPSJ1c2VyU3BhY2VPblVzZSIgb3JpZW50PSJhdXRvIiB2aWV3Qm94PSIwIDAgMTMgOSIgcmVmWT0iNC41IiByZWZYPSI5LjUiIG1hcmtlckhlaWdodD0iOSIgbWFya2VyV2lkdGg9IjEzIiBpZD0iU3ZnanNNYXJrZXIyNjQ1Ij48cGF0aCBzdHJva2Utd2lkdGg9IjEiIHN0cm9rZT0iIzMyMzIzMiIgZmlsbD0iIzMyMzIzMiIgZD0iTTAsMCBMMTMsNC41IEwwLDkgTDAsMCIgaWQ9IlN2Z2pzUGF0aDI2NDYiLz48L21hcmtlcj48bWFya2VyIHN0cm9rZS1kYXNoYXJyYXk9IjAsMCIgbWFya2VyVW5pdHM9InVzZXJTcGFjZU9uVXNlIiBvcmllbnQ9ImF1dG8iIHZpZXdCb3g9IjAgMCAxMyA5IiByZWZZPSI0LjUiIHJlZlg9IjkuNSIgbWFya2VySGVpZ2h0PSI5IiBtYXJrZXJXaWR0aD0iMTMiIGlkPSJTdmdqc01hcmtlcjI2NzciPjxwYXRoIHN0cm9rZS13aWR0aD0iMSIgc3Ryb2tlPSIjMzIzMjMyIiBmaWxsPSIjMzIzMjMyIiBkPSJNMCwwIEwxMyw0LjUgTDAsOSBMMCwwIiBpZD0iU3ZnanNQYXRoMjY3OCIvPjwvbWFya2VyPjxtYXJrZXIgc3Ryb2tlLWRhc2hhcnJheT0iMCwwIiBtYXJrZXJVbml0cz0idXNlclNwYWNlT25Vc2UiIG9yaWVudD0iYXV0byIgdmlld0JveD0iMCAwIDEzIDkiIHJlZlk9IjQuNSIgcmVmWD0iOS41IiBtYXJrZXJIZWlnaHQ9IjkiIG1hcmtlcldpZHRoPSIxMyIgaWQ9IlN2Z2pzTWFya2VyMjY4NyI+PHBhdGggc3Ryb2tlLXdpZHRoPSIxIiBzdHJva2U9IiMzMjMyMzIiIGZpbGw9IiMzMjMyMzIiIGQ9Ik0wLDAgTDEzLDQuNSBMMCw5IEwwLDAiIGlkPSJTdmdqc1BhdGgyNjg4Ii8+PC9tYXJrZXI+PG1hcmtlciBzdHJva2UtZGFzaGFycmF5PSIwLDAiIG1hcmtlclVuaXRzPSJ1c2VyU3BhY2VPblVzZSIgb3JpZW50PSJhdXRvIiB2aWV3Qm94PSIwIDAgMTMgOSIgcmVmWT0iNC41IiByZWZYPSI5LjUiIG1hcmtlckhlaWdodD0iOSIgbWFya2VyV2lkdGg9IjEzIiBpZD0iU3ZnanNNYXJrZXIyNjk1Ij48cGF0aCBzdHJva2Utd2lkdGg9IjEiIHN0cm9rZT0iIzMyMzIzMiIgZmlsbD0iIzMyMzIzMiIgZD0iTTAsMCBMMTMsNC41IEwwLDkgTDAsMCIgaWQ9IlN2Z2pzUGF0aDI2OTYiLz48L21hcmtlcj48bWFya2VyIHN0cm9rZS1kYXNoYXJyYXk9IjAsMCIgbWFya2VyVW5pdHM9InVzZXJTcGFjZU9uVXNlIiBvcmllbnQ9ImF1dG8iIHZpZXdCb3g9IjAgMCAxMyA5IiByZWZZPSI0LjUiIHJlZlg9IjkuNSIgbWFya2VySGVpZ2h0PSI5IiBtYXJrZXJXaWR0aD0iMTMiIGlkPSJTdmdqc01hcmtlcjI3MDciPjxwYXRoIHN0cm9rZS13aWR0aD0iMSIgc3Ryb2tlPSIjMzIzMjMyIiBmaWxsPSIjMzIzMjMyIiBkPSJNMCwwIEwxMyw0LjUgTDAsOSBMMCwwIiBpZD0iU3ZnanNQYXRoMjcwOCIvPjwvbWFya2VyPjxtYXJrZXIgc3Ryb2tlLWRhc2hhcnJheT0iMCwwIiBtYXJrZXJVbml0cz0idXNlclNwYWNlT25Vc2UiIG9yaWVudD0iYXV0byIgdmlld0JveD0iMCAwIDEzIDkiIHJlZlk9IjQuNSIgcmVmWD0iOS41IiBtYXJrZXJIZWlnaHQ9IjkiIG1hcmtlcldpZHRoPSIxMyIgaWQ9IlN2Z2pzTWFya2VyMjcxMSI+PHBhdGggc3Ryb2tlLXdpZHRoPSIxIiBzdHJva2U9IiMzMjMyMzIiIGZpbGw9IiMzMjMyMzIiIGQ9Ik0wLDAgTDEzLDQuNSBMMCw5IEwwLDAiIGlkPSJTdmdqc1BhdGgyNzEyIi8+PC9tYXJrZXI+PG1hcmtlciBzdHJva2UtZGFzaGFycmF5PSIwLDAiIG1hcmtlclVuaXRzPSJ1c2VyU3BhY2VPblVzZSIgb3JpZW50PSJhdXRvIiB2aWV3Qm94PSIwIDAgMTMgOSIgcmVmWT0iNC41IiByZWZYPSI5LjUiIG1hcmtlckhlaWdodD0iOSIgbWFya2VyV2lkdGg9IjEzIiBpZD0iU3ZnanNNYXJrZXIyNzM5Ij48cGF0aCBzdHJva2Utd2lkdGg9IjEiIHN0cm9rZT0iIzMyMzIzMiIgZmlsbD0iIzMyMzIzMiIgZD0iTTAsMCBMMTMsNC41IEwwLDkgTDAsMCIgaWQ9IlN2Z2pzUGF0aDI3NDAiLz48L21hcmtlcj48bWFya2VyIHN0cm9rZS1kYXNoYXJyYXk9IjAsMCIgbWFya2VyVW5pdHM9InVzZXJTcGFjZU9uVXNlIiBvcmllbnQ9ImF1dG8iIHZpZXdCb3g9IjAgMCAxMyA5IiByZWZZPSI0LjUiIHJlZlg9IjkuNSIgbWFya2VySGVpZ2h0PSI5IiBtYXJrZXJXaWR0aD0iMTMiIGlkPSJTdmdqc01hcmtlcjI3NDMiPjxwYXRoIHN0cm9rZS13aWR0aD0iMSIgc3Ryb2tlPSIjMzIzMjMyIiBmaWxsPSIjMzIzMjMyIiBkPSJNMCwwIEwxMyw0LjUgTDAsOSBMMCwwIiBpZD0iU3ZnanNQYXRoMjc0NCIvPjwvbWFya2VyPjxtYXJrZXIgc3Ryb2tlLWRhc2hhcnJheT0iMCwwIiBtYXJrZXJVbml0cz0idXNlclNwYWNlT25Vc2UiIG9yaWVudD0iYXV0byIgdmlld0JveD0iMCAwIDEzIDkiIHJlZlk9IjQuNSIgcmVmWD0iOS41IiBtYXJrZXJIZWlnaHQ9IjkiIG1hcmtlcldpZHRoPSIxMyIgaWQ9IlN2Z2pzTWFya2VyMjc0NyI+PHBhdGggc3Ryb2tlLXdpZHRoPSIxIiBzdHJva2U9IiMzMjMyMzIiIGZpbGw9IiMzMjMyMzIiIGQ9Ik0wLDAgTDEzLDQuNSBMMCw5IEwwLDAiIGlkPSJTdmdqc1BhdGgyNzQ4Ii8+PC9tYXJrZXI+PG1hcmtlciBzdHJva2UtZGFzaGFycmF5PSIwLDAiIG1hcmtlclVuaXRzPSJ1c2VyU3BhY2VPblVzZSIgb3JpZW50PSJhdXRvIiB2aWV3Qm94PSIwIDAgMTMgOSIgcmVmWT0iNC41IiByZWZYPSI5LjUiIG1hcmtlckhlaWdodD0iOSIgbWFya2VyV2lkdGg9IjEzIiBpZD0iU3ZnanNNYXJrZXIyNzU1Ij48cGF0aCBzdHJva2Utd2lkdGg9IjEiIHN0cm9rZT0iIzMyMzIzMiIgZmlsbD0iIzMyMzIzMiIgZD0iTTAsMCBMMTMsNC41IEwwLDkgTDAsMCIgaWQ9IlN2Z2pzUGF0aDI3NTYiLz48L21hcmtlcj48bWFya2VyIHN0cm9rZS1kYXNoYXJyYXk9IjAsMCIgbWFya2VyVW5pdHM9InVzZXJTcGFjZU9uVXNlIiBvcmllbnQ9ImF1dG8iIHZpZXdCb3g9IjAgMCAxMyA5IiByZWZZPSI0LjUiIHJlZlg9IjkuNSIgbWFya2VySGVpZ2h0PSI5IiBtYXJrZXJXaWR0aD0iMTMiIGlkPSJTdmdqc01hcmtlcjI3NzEiPjxwYXRoIHN0cm9rZS13aWR0aD0iMSIgc3Ryb2tlPSIjMzIzMjMyIiBmaWxsPSIjMzIzMjMyIiBkPSJNMCwwIEwxMyw0LjUgTDAsOSBMMCwwIiBpZD0iU3ZnanNQYXRoMjc3MiIvPjwvbWFya2VyPjxtYXJrZXIgc3Ryb2tlLWRhc2hhcnJheT0iMCwwIiBtYXJrZXJVbml0cz0idXNlclNwYWNlT25Vc2UiIG9yaWVudD0iYXV0byIgdmlld0JveD0iMCAwIDEzIDkiIHJlZlk9IjQuNSIgcmVmWD0iOS41IiBtYXJrZXJIZWlnaHQ9IjkiIG1hcmtlcldpZHRoPSIxMyIgaWQ9IlN2Z2pzTWFya2VyMjc3NSI+PHBhdGggc3Ryb2tlLXdpZHRoPSIxIiBzdHJva2U9IiMzMjMyMzIiIGZpbGw9IiMzMjMyMzIiIGQ9Ik0wLDAgTDEzLDQuNSBMMCw5IEwwLDAiIGlkPSJTdmdqc1BhdGgyNzc2Ii8+PC9tYXJrZXI+PG1hcmtlciBzdHJva2UtZGFzaGFycmF5PSIwLDAiIG1hcmtlclVuaXRzPSJ1c2VyU3BhY2VPblVzZSIgb3JpZW50PSJhdXRvIiB2aWV3Qm94PSIwIDAgMTMgOSIgcmVmWT0iNC41IiByZWZYPSI5LjUiIG1hcmtlckhlaWdodD0iOSIgbWFya2VyV2lkdGg9IjEzIiBpZD0iU3ZnanNNYXJrZXIyNzc5Ij48cGF0aCBzdHJva2Utd2lkdGg9IjEiIHN0cm9rZT0iIzMyMzIzMiIgZmlsbD0iIzMyMzIzMiIgZD0iTTAsMCBMMTMsNC41IEwwLDkgTDAsMCIgaWQ9IlN2Z2pzUGF0aDI3ODAiLz48L21hcmtlcj48bWFya2VyIHN0cm9rZS1kYXNoYXJyYXk9IjAsMCIgbWFya2VyVW5pdHM9InVzZXJTcGFjZU9uVXNlIiBvcmllbnQ9ImF1dG8iIHZpZXdCb3g9IjAgMCAxMyA5IiByZWZZPSI0LjUiIHJlZlg9IjkuNSIgbWFya2VySGVpZ2h0PSI5IiBtYXJrZXJXaWR0aD0iMTMiIGlkPSJTdmdqc01hcmtlcjI3ODciPjxwYXRoIHN0cm9rZS13aWR0aD0iMSIgc3Ryb2tlPSIjMzIzMjMyIiBmaWxsPSIjMzIzMjMyIiBkPSJNMCwwIEwxMyw0LjUgTDAsOSBMMCwwIiBpZD0iU3ZnanNQYXRoMjc4OCIvPjwvbWFya2VyPjxtYXJrZXIgc3Ryb2tlLWRhc2hhcnJheT0iMCwwIiBtYXJrZXJVbml0cz0idXNlclNwYWNlT25Vc2UiIG9yaWVudD0iYXV0byIgdmlld0JveD0iMCAwIDEzIDkiIHJlZlk9IjQuNSIgcmVmWD0iOS41IiBtYXJrZXJIZWlnaHQ9IjkiIG1hcmtlcldpZHRoPSIxMyIgaWQ9IlN2Z2pzTWFya2VyMjc5NSI+PHBhdGggc3Ryb2tlLXdpZHRoPSIxIiBzdHJva2U9IiMzMjMyMzIiIGZpbGw9IiMzMjMyMzIiIGQ9Ik0wLDAgTDEzLDQuNSBMMCw5IEwwLDAiIGlkPSJTdmdqc1BhdGgyNzk2Ii8+PC9tYXJrZXI+PC9kZWZzPjxyZWN0IGZpbGw9InRyYW5zcGFyZW50IiBoZWlnaHQ9Ijc5MC40ODY2NDI3MTMzNzM1IiB3aWR0aD0iNDQ2LjM3NzYzMTU1ODMxMjQiIGlkPSJzdmdiYWNrZ3JvdW5kaWQiLz48cmVjdCBmaWxsPSJ1cmwoI3BhdHRlcm5fbWFya18wKSIgaGVpZ2h0PSI3OTAuNDg2NjQyNzEzMzczNSIgd2lkdGg9IjQ0Ni4zNzc2MzE1NTgzMTI0IiBpZD0iU3ZnanNSZWN0MjYxNSIvPjxyZWN0IGZpbGw9InVybCgjcGF0dGVybl9tYXJrXzEpIiBoZWlnaHQ9Ijc5MC40ODY2NDI3MTMzNzM1IiB3aWR0aD0iNDQ2LjM3NzYzMTU1ODMxMjQiIGlkPSJTdmdqc1JlY3QyNjE2Ii8+PGcgdHJhbnNmb3JtPSJ0cmFuc2xhdGUoMTA3LjI5NTYzOTQ2MTk0MTE2LDg5LjM4ODg4OTQxODcwNzk1KSIgaWQ9IlN2Z2pzRzI2MTciPjxwYXRoIGZpbGw9IiNmZmZmZmYiIGZpbGwtb3BhY2l0eT0iMSIgc3Ryb2tlLXdpZHRoPSIxLjUiIHN0cm9rZT0icmdiYSgzMyw0MSw0OCwxKSIgZD0iTSAwIDBMIDIyMC45OTIgMEwgMjIwLjk5MiAzMC40MjlMIDAgMzAuNDI5WiIgaWQ9IlN2Z2pzUGF0aDI2MTgiLz48ZyBpZD0iU3ZnanNHMjYxOSI+PHRleHQgdHJhbnNmb3JtPSJyb3RhdGUoMCkiIHk9IjQuNTg5NDk5OTk5OTk5OTk5IiBvcGFjaXR5PSIxIiBmb250LXN0eWxlPSIiIHNpemU9IjEzcHgiIGFsaWduPSJtaWRkbGUiIGZvbnQtd2VpZ2h0PSI0MDAiIGZpbGw9IiMyNjI2MjYiIHdpZHRoPSIyMDFweCIgZm9udC1zaXplPSIxM3B4IiB0ZXh0LWFuY2hvcj0ibWlkZGxlIiBmb250LWZhbWlseT0i5a6L5L2TIiBpZD0iU3ZnanNUZXh0MjYyMCI+PHRzcGFuIHg9IjExMC41IiBkeT0iMTYuMjUiIGlkPSJTdmdqc1RzcGFuMjYyMSI+PHRzcGFuIHN0eWxlPSIiIGlkPSJTdmdqc1RzcGFuMjYyMiI+5L2/55So5Luj55CGSVDov5vooYzmqKHmi5/nlKjmiLforr/pl67or7fmsYI8L3RzcGFuPjwvdHNwYW4+PC90ZXh0PjwvZz48L2c+PGcgdHJhbnNmb3JtPSJ0cmFuc2xhdGUoMTY1LjI5MTY2NjY2NjY2NjYzLDE0MS4xNzQ2MDU0NzU1MzE2OCkiIGlkPSJTdmdqc0cyNjIzIj48cGF0aCBmaWxsPSIjZmZmZmZmIiBmaWxsLW9wYWNpdHk9IjEiIHN0cm9rZS13aWR0aD0iMS41IiBzdHJva2U9InJnYmEoMzMsNDEsNDgsMSkiIGQ9Ik0gMCAyMkwgNTIuNSAwTCAxMDUgMjJMIDUyLjUgNDRaIiBpZD0iU3ZnanNQYXRoMjYyNCIvPjxnIGlkPSJTdmdqc0cyNjI1Ij48dGV4dCB0cmFuc2Zvcm09InJvdGF0ZSgwKSIgeT0iMTEuNTk0OTk5OTk5OTk5OTk5IiBvcGFjaXR5PSIxIiBmb250LXN0eWxlPSIiIHNpemU9IjEzcHgiIGFsaWduPSJtaWRkbGUiIGZvbnQtd2VpZ2h0PSI0MDAiIGZpbGw9IiMyNjI2MjYiIHdpZHRoPSI4NXB4IiBmb250LXNpemU9IjEzcHgiIHRleHQtYW5jaG9yPSJtaWRkbGUiIGZvbnQtZmFtaWx5PSLlrovkvZMiIGlkPSJTdmdqc1RleHQyNjI2Ij48dHNwYW4geD0iNTIuNSIgZHk9IjE2LjI1IiBpZD0iU3ZnanNUc3BhbjI2MjciPjx0c3BhbiBzdHlsZT0iIiBpZD0iU3ZnanNUc3BhbjI2MjgiPui+vuWIsOaKpeitpumYiOWAvDwvdHNwYW4+PC90c3Bhbj48L3RleHQ+PC9nPjwvZz48ZyBpZD0iU3ZnanNHMjYyOSI+PHBhdGggbWFya2VyLWVuZD0idXJsKCNTdmdqc01hcmtlcjI2MzEpIiBmaWxsPSJub25lIiBzdHJva2Utd2lkdGg9IjEuNSIgc3Ryb2tlPSIjMzIzMjMyIiBkPSJNMjE3Ljc5MTY2NjY2NjY2NjYzIDEyMC41Njc0NjExMTk3NTc3NUwyMTcuNzkxNjY2NjY2NjY2NjMgMTMwLjQ5NjAzMzI5NzY0NDcxTDIxNy43OTE2NjY2NjY2NjY2MyAxMzAuNDk2MDMzMjk3NjQ0NzFMMjE3Ljc5MTY2NjY2NjY2NjYzIDEzOC40NzQ2MDU0NzU1MzE3IiBpZD0iU3ZnanNQYXRoMjYzMCIvPjwvZz48ZyB0cmFuc2Zvcm09InRyYW5zbGF0ZSgxNjIuNjA1MTU5ODY1NDg1MzUsMjUpIiBpZD0iU3ZnanNHMjYzMyI+PHBhdGggZmlsbD0iI2ZmZmZmZiIgZmlsbC1vcGFjaXR5PSIxIiBzdHJva2Utd2lkdGg9IjEuNSIgc3Ryb2tlPSJyZ2JhKDMzLDQxLDQ4LDEpIiBkPSJNIDExLjY3NyAwTCA5OC42OTYgMEMgMTE0LjI2NSAwIDExNC4yNjUgMzUuMDMyIDk4LjY5NiAzNS4wMzJMIDExLjY3NyAzNS4wMzJDIC0zLjg5MiAzNS4wMzIgLTMuODkyIDAgMTEuNjc3IDBaIiBpZD0iU3ZnanNQYXRoMjYzNCIvPjxnIGlkPSJTdmdqc0cyNjM1Ij48dGV4dCB0cmFuc2Zvcm09InJvdGF0ZSgwKSIgeT0iNi44OTA5OTk5OTk5OTk5OTgiIG9wYWNpdHk9IjEiIGZvbnQtc3R5bGU9IiIgc2l6ZT0iMTNweCIgYWxpZ249Im1pZGRsZSIgZm9udC13ZWlnaHQ9IjQwMCIgZmlsbD0iIzI2MjYyNiIgd2lkdGg9IjkxcHgiIGZvbnQtc2l6ZT0iMTNweCIgdGV4dC1hbmNob3I9Im1pZGRsZSIgZm9udC1mYW1pbHk9IuWui+S9kyIgaWQ9IlN2Z2pzVGV4dDI2MzYiPjx0c3BhbiB4PSI1NS41IiBkeT0iMTYuMjUiIGlkPSJTdmdqc1RzcGFuMjYzNyI+PHRzcGFuIHN0eWxlPSIiIGlkPSJTdmdqc1RzcGFuMjYzOCI+5byA5aeLPC90c3Bhbj48L3RzcGFuPjwvdGV4dD48L2c+PC9nPjxnIGlkPSJTdmdqc0cyNjM5Ij48cGF0aCBtYXJrZXItZW5kPSJ1cmwoI1N2Z2pzTWFya2VyMjY0MSkiIGZpbGw9Im5vbmUiIHN0cm9rZS13aWR0aD0iMS41IiBzdHJva2U9IiMzMjMyMzIiIGQ9Ik0yMTcuNzkxNjY2NjY2NjY2NzQgNjAuNzgxNzQ1MDYyOTM0MDJMMjE3Ljc5MTY2NjY2NjY2Njc0IDc0LjcxMDMxNzI0MDgyMDk4TDIxNy43OTE2NjY2NjY2NjY2MyA3NC43MTAzMTcyNDA4MjA5OEwyMTcuNzkxNjY2NjY2NjY2NjMgODYuNjg4ODg5NDE4NzA3OTYiIGlkPSJTdmdqc1BhdGgyNjQwIi8+PC9nPjxnIGlkPSJTdmdqc0cyNjQzIj48cGF0aCBtYXJrZXItZW5kPSJ1cmwoI1N2Z2pzTWFya2VyMjY0NSkiIGZpbGw9Im5vbmUiIHN0cm9rZS13aWR0aD0iMS41IiBzdHJva2U9IiMzMjMyMzIiIGQ9Ik0yNzEuMDQxNjY2NjY2NjY2NjMgMTYzLjE3NDYwNTQ3NTUzMTY4TDI5NS41NDI4OTIxNTY4NjI3NiAxNjMuMTc0NjA1NDc1NTMxNjhMMjk1LjU0Mjg5MjE1Njg2Mjc2IDE3MS4xNzQ2MDU0NzU1MzE2OEwzMTguMDk0MTE3NjQ3MDU4NzQgMTcxLjE3NDYwNTQ3NTUzMTY4IiBpZD0iU3ZnanNQYXRoMjY0NCIvPjxyZWN0IGZpbGw9IiNmZmZmZmYiIHk9IjE1NC4xNzQ2MDU0NzU1MzE2OCIgeD0iMjg0LjQwNzUxMzI4NTY4OCIgaGVpZ2h0PSIxOCIgd2lkdGg9IjEzLjQiIGlkPSJTdmdqc1JlY3QyNjQ3Ii8+PHRleHQgdHJhbnNmb3JtPSJyb3RhdGUoMCkiIHk9IjE1MS41NDk2MDU0NzU1MzE2OCIgb3BhY2l0eT0iMSIgZm9udC1zdHlsZT0iIiBzaXplPSIxM3B4IiBhbGlnbj0idG9wIiBmb250LXdlaWdodD0iNDAwIiBmaWxsPSIjMjYyNjI2IiB3aWR0aD0iMTMuNHB4IiBmb250LXNpemU9IjEzcHgiIHRleHQtYW5jaG9yPSJtaWRkbGUiIGZvbnQtZmFtaWx5PSLlrovkvZMiIGlkPSJTdmdqc1RleHQyNjQ4Ij48dHNwYW4geD0iMjkwLjkwNzUxMzI4NTY4OCIgZHk9IjE2LjI1IiBpZD0iU3ZnanNUc3BhbjI2NDkiPjx0c3BhbiBzdHlsZT0iIiBpZD0iU3ZnanNUc3BhbjI2NTAiPuWQpjwvdHNwYW4+PC90c3Bhbj48L3RleHQ+PC9nPjxnIHRyYW5zZm9ybT0idHJhbnNsYXRlKDMyMC43OTQxMTc2NDcwNTg4LDE1Ny4xNzQ2MDU0NzU1MzE2OCkiIGlkPSJTdmdqc0cyNjUxIj48cGF0aCBmaWxsPSIjZmZmZmZmIiBmaWxsLW9wYWNpdHk9IjEiIHN0cm9rZS13aWR0aD0iMS41IiBzdHJva2U9InJnYmEoMzMsNDEsNDgsMSkiIGQ9Ik0gOS4zMzMgMEwgODIuNjY3IDBDIDk1LjExMSAwIDk1LjExMSAyOCA4Mi42NjcgMjhMIDkuMzMzIDI4QyAtMy4xMTEgMjggLTMuMTExIDAgOS4zMzMgMFoiIGlkPSJTdmdqc1BhdGgyNjUyIi8+PGcgaWQ9IlN2Z2pzRzI2NTMiPjx0ZXh0IHRyYW5zZm9ybT0icm90YXRlKDApIiB5PSIzLjM3NSIgb3BhY2l0eT0iMSIgZm9udC1zdHlsZT0iIiBzaXplPSIxM3B4IiBhbGlnbj0ibWlkZGxlIiBmb250LXdlaWdodD0iNDAwIiBmaWxsPSIjMjYyNjI2IiB3aWR0aD0iNzJweCIgZm9udC1zaXplPSIxM3B4IiB0ZXh0LWFuY2hvcj0ibWlkZGxlIiBmb250LWZhbWlseT0i5a6L5L2TIiBpZD0iU3ZnanNUZXh0MjY1NCI+PHRzcGFuIHg9IjQ2IiBkeT0iMTYuMjUiIGlkPSJTdmdqc1RzcGFuMjY1NSI+PHRzcGFuIHN0eWxlPSIiIGlkPSJTdmdqc1RzcGFuMjY1NiI+57uT5p2fPC90c3Bhbj48L3RzcGFuPjwvdGV4dD48L2c+PC9nPjxnIHRyYW5zZm9ybT0idHJhbnNsYXRlKDE1OS45MzQ1MjMyNjQ1NjcwMiwyODYuODk1ODk3MjYwNjc4NCkiIGlkPSJTdmdqc0cyNjU3Ij48cGF0aCBmaWxsPSIjZmZmZmZmIiBmaWxsLW9wYWNpdHk9IjEiIHN0cm9rZS13aWR0aD0iMS41IiBzdHJva2U9InJnYmEoMzMsNDEsNDgsMSkiIGQ9Ik0gMCAyNS42ODNMIDU3Ljg1NyAwTCAxMTUuNzE0IDI1LjY4M0wgNTcuODU3IDUxLjM2NVoiIGlkPSJTdmdqc1BhdGgyNjU4Ii8+PGcgaWQ9IlN2Z2pzRzI2NTkiPjx0ZXh0IHRyYW5zZm9ybT0icm90YXRlKDApIiB5PSIxNS4zMTQiIG9wYWNpdHk9IjEiIGZvbnQtc3R5bGU9IiIgc2l6ZT0iMTNweCIgYWxpZ249Im1pZGRsZSIgZm9udC13ZWlnaHQ9IjQwMCIgZmlsbD0iIzI2MjYyNiIgd2lkdGg9Ijk2cHgiIGZvbnQtc2l6ZT0iMTNweCIgdGV4dC1hbmNob3I9Im1pZGRsZSIgZm9udC1mYW1pbHk9IuWui+S9kyIgaWQ9IlN2Z2pzVGV4dDI2NjAiPjx0c3BhbiB4PSI1OCIgZHk9IjE2LjI1IiBpZD0iU3ZnanNUc3BhbjI2NjEiPjx0c3BhbiBzdHlsZT0iIiBpZD0iU3ZnanNUc3BhbjI2NjIiPuWIpOaWreaYr+WTquenjeaKpeitpjwvdHNwYW4+PC90c3Bhbj48L3RleHQ+PC9nPjwvZz48ZyB0cmFuc2Zvcm09InRyYW5zbGF0ZSg0MS4zNzMwMTM2MDIzNjI3MywzNDMuNjQ0NTA1NTc5ODcyNjYpIiBpZD0iU3ZnanNHMjY2MyI+PHBhdGggZmlsbD0iI2ZmZmZmZiIgZmlsbC1vcGFjaXR5PSIxIiBzdHJva2Utd2lkdGg9IjEuNSIgc3Ryb2tlPSJyZ2JhKDMzLDQxLDQ4LDEpIiBkPSJNIDAgMEwgOTYgMEwgOTYgMjdMIDAgMjdaIiBpZD0iU3ZnanNQYXRoMjY2NCIvPjxnIGlkPSJTdmdqc0cyNjY1Ij48dGV4dCB0cmFuc2Zvcm09InJvdGF0ZSgwKSIgeT0iMi44NzUiIG9wYWNpdHk9IjEiIGZvbnQtc3R5bGU9IiIgc2l6ZT0iMTNweCIgYWxpZ249Im1pZGRsZSIgZm9udC13ZWlnaHQ9IjQwMCIgZmlsbD0iIzI2MjYyNiIgd2lkdGg9Ijc2cHgiIGZvbnQtc2l6ZT0iMTNweCIgdGV4dC1hbmNob3I9Im1pZGRsZSIgZm9udC1mYW1pbHk9IuWui+S9kyIgaWQ9IlN2Z2pzVGV4dDI2NjYiPjx0c3BhbiB4PSI0OCIgZHk9IjE2LjI1IiBpZD0iU3ZnanNUc3BhbjI2NjciPjx0c3BhbiBzdHlsZT0iIiBpZD0iU3ZnanNUc3BhbjI2NjgiPuitpuWRijwvdHNwYW4+PC90c3Bhbj48L3RleHQ+PC9nPjwvZz48ZyB0cmFuc2Zvcm09InRyYW5zbGF0ZSgzMTAuMjQ2MDI3MjA0NzI1NiwzNzAuNjQ0NTA1NTc5ODcyNjYpIiBpZD0iU3ZnanNHMjY2OSI+PHBhdGggZmlsbD0iI2ZmZmZmZiIgZmlsbC1vcGFjaXR5PSIxIiBzdHJva2Utd2lkdGg9IjEuNSIgc3Ryb2tlPSJyZ2JhKDMzLDQxLDQ4LDEpIiBkPSJNIDAgMEwgOTYgMEwgOTYgMjdMIDAgMjdaIiBpZD0iU3ZnanNQYXRoMjY3MCIvPjxnIGlkPSJTdmdqc0cyNjcxIj48dGV4dCB0cmFuc2Zvcm09InJvdGF0ZSgwKSIgeT0iMi44NzUiIG9wYWNpdHk9IjEiIGZvbnQtc3R5bGU9IiIgc2l6ZT0iMTNweCIgYWxpZ249Im1pZGRsZSIgZm9udC13ZWlnaHQ9IjQwMCIgZmlsbD0iIzI2MjYyNiIgd2lkdGg9Ijc2cHgiIGZvbnQtc2l6ZT0iMTNweCIgdGV4dC1hbmNob3I9Im1pZGRsZSIgZm9udC1mYW1pbHk9IuWui+S9kyIgaWQ9IlN2Z2pzVGV4dDI2NzIiPjx0c3BhbiB4PSI0OCIgZHk9IjE2LjI1IiBpZD0iU3ZnanNUc3BhbjI2NzMiPjx0c3BhbiBzdHlsZT0iIiBpZD0iU3ZnanNUc3BhbjI2NzQiPumHjeWkp+e8uumZtzwvdHNwYW4+PC90c3Bhbj48L3RleHQ+PC9nPjwvZz48ZyBpZD0iU3ZnanNHMjY3NSI+PHBhdGggbWFya2VyLWVuZD0idXJsKCNTdmdqc01hcmtlcjI2NzcpIiBmaWxsPSJub25lIiBzdHJva2Utd2lkdGg9IjEuNSIgc3Ryb2tlPSIjMzIzMjMyIiBkPSJNMjc2LjM5ODgxMDA2ODc2NjI0IDMxMi41Nzg0MzY5MzU2NDkzTDM1OC4yNDYwMjcyMDQ3MjU4IDMxMi41Nzg0MzY5MzU2NDkzTDM1OC4yNDYwMjcyMDQ3MjU4IDM2Ny45NDQ1MDU1Nzk4NzI2NyIgaWQ9IlN2Z2pzUGF0aDI2NzYiLz48L2c+PGcgdHJhbnNmb3JtPSJ0cmFuc2xhdGUoMTY1LjQ1NjM2MDc2ODUyNDE4LDIyNi44MzA3NzE2MjY5NDUyNSkiIGlkPSJTdmdqc0cyNjc5Ij48cGF0aCBmaWxsPSIjZmZmZmZmIiBmaWxsLW9wYWNpdHk9IjEiIHN0cm9rZS13aWR0aD0iMS41IiBzdHJva2U9InJnYmEoMzMsNDEsNDgsMSkiIGQ9Ik0gMCAwTCAxMTEuNzUzIDBMIDExMS43NTMgMzAuNDA2TCAwIDMwLjQwNloiIGlkPSJTdmdqc1BhdGgyNjgwIi8+PGcgaWQ9IlN2Z2pzRzI2ODEiPjx0ZXh0IHRyYW5zZm9ybT0icm90YXRlKDApIiB5PSI0LjU3Nzk5OTk5OTk5OTk5OSIgb3BhY2l0eT0iMSIgZm9udC1zdHlsZT0iIiBzaXplPSIxM3B4IiBhbGlnbj0ibWlkZGxlIiBmb250LXdlaWdodD0iNDAwIiBmaWxsPSIjMjYyNjI2IiB3aWR0aD0iOTJweCIgZm9udC1zaXplPSIxM3B4IiB0ZXh0LWFuY2hvcj0ibWlkZGxlIiBmb250LWZhbWlseT0i5a6L5L2TIiBpZD0iU3ZnanNUZXh0MjY4MiI+PHRzcGFuIHg9IjU2IiBkeT0iMTYuMjUiIGlkPSJTdmdqc1RzcGFuMjY4MyI+PHRzcGFuIHN0eWxlPSIiIGlkPSJTdmdqc1RzcGFuMjY4NCI+wqA8L3RzcGFuPjwvdHNwYW4+PC90ZXh0PjwvZz48L2c+PGcgaWQ9IlN2Z2pzRzI2ODUiPjxwYXRoIG1hcmtlci1lbmQ9InVybCgjU3ZnanNNYXJrZXIyNjg3KSIgZmlsbD0ibm9uZSIgc3Ryb2tlLXdpZHRoPSIxLjUiIHN0cm9rZT0iIzMyMzIzMiIgZD0iTTIxNy43OTE2NjY2NjY2NjY2MyAxODUuOTI0NjA1NDc1NTMxNjhMMjE3Ljc5MTY2NjY2NjY2NjYzIDIwNi4wMDI2ODg1NTEyMzg0NkwyMTcuOTM3MDYyMTQyMTAyOTUgMjA2LjAwMjY4ODU1MTIzODQ2TDIxNy45MzcwNjIxNDIxMDI5NSAyMjQuMTMwNzcxNjI2OTQ1MjYiIGlkPSJTdmdqc1BhdGgyNjg2Ii8+PHJlY3QgZmlsbD0iI2ZmZmZmZiIgeT0iMTg5LjA5Njg2NTc1MTA2MTEiIHg9IjIxMS4xMzc5ODg4MTE3MDY4IiBoZWlnaHQ9IjE4IiB3aWR0aD0iMTMuNCIgaWQ9IlN2Z2pzUmVjdDI2ODkiLz48dGV4dCB0cmFuc2Zvcm09InJvdGF0ZSgwKSIgeT0iMTg2LjQ3MTg2NTc1MTA2MTEiIG9wYWNpdHk9IjEiIGZvbnQtc3R5bGU9IiIgc2l6ZT0iMTNweCIgYWxpZ249InRvcCIgZm9udC13ZWlnaHQ9IjQwMCIgZmlsbD0iIzI2MjYyNiIgd2lkdGg9IjEzLjRweCIgZm9udC1zaXplPSIxM3B4IiB0ZXh0LWFuY2hvcj0ibWlkZGxlIiBmb250LWZhbWlseT0i5a6L5L2TIiBpZD0iU3ZnanNUZXh0MjY5MCI+PHRzcGFuIHg9IjIxNy42Mzc5ODg4MTE3MDY4IiBkeT0iMTYuMjUiIGlkPSJTdmdqc1RzcGFuMjY5MSI+PHRzcGFuIHN0eWxlPSIiIGlkPSJTdmdqc1RzcGFuMjY5MiI+5pivPC90c3Bhbj48L3RzcGFuPjwvdGV4dD48L2c+PGcgaWQ9IlN2Z2pzRzI2OTMiPjxwYXRoIG1hcmtlci1lbmQ9InVybCgjU3ZnanNNYXJrZXIyNjk1KSIgZmlsbD0ibm9uZSIgc3Ryb2tlLXdpZHRoPSIxLjUiIHN0cm9rZT0iIzMyMzIzMiIgZD0iTTIxNy45MzcwNjIxNDIxMDI5NSAyNTcuOTg2MzQ1MjExNTUyOUwyMTcuOTM3MDYyMTQyMTAyOTUgMjcyLjA2NjEyMTIzNjExNTYzTDIxNy43OTE2NjY2NjY2NjY2MyAyNzIuMDY2MTIxMjM2MTE1NjNMMjE3Ljc5MTY2NjY2NjY2NjYzIDI4NC4xOTU4OTcyNjA2Nzg0IiBpZD0iU3ZnanNQYXRoMjY5NCIvPjwvZz48ZyB0cmFuc2Zvcm09InRyYW5zbGF0ZSgyNSw0MDEuODY2NTQ5NzcxNzYzNSkiIGlkPSJTdmdqc0cyNjk3Ij48cGF0aCBmaWxsPSIjZmZmZmZmIiBmaWxsLW9wYWNpdHk9IjEiIHN0cm9rZS13aWR0aD0iMS41IiBzdHJva2U9InJnYmEoMzMsNDEsNDgsMSkiIGQ9Ik0gMCAzMC41NTZMIDY0LjM3MyAwTCAxMjguNzQ2IDMwLjU1NkwgNjQuMzczIDYxLjExMVoiIGlkPSJTdmdqc1BhdGgyNjk4Ii8+PGcgaWQ9IlN2Z2pzRzI2OTkiPjx0ZXh0IHRyYW5zZm9ybT0icm90YXRlKDApIiB5PSIxMS43MzU0OTk5OTk5OTk5OTgiIG9wYWNpdHk9IjEiIGZvbnQtc3R5bGU9IiIgc2l6ZT0iMTNweCIgYWxpZ249Im1pZGRsZSIgZm9udC13ZWlnaHQ9IjQwMCIgZmlsbD0iIzI2MjYyNiIgd2lkdGg9IjEwOXB4IiBmb250LXNpemU9IjEzcHgiIHRleHQtYW5jaG9yPSJtaWRkbGUiIGZvbnQtZmFtaWx5PSLlrovkvZMiIGlkPSJTdmdqc1RleHQyNzAwIj48dHNwYW4geD0iNjQuNSIgZHk9IjE2LjI1IiBpZD0iU3ZnanNUc3BhbjI3MDEiPjx0c3BhbiBzdHlsZT0iIiBpZD0iU3ZnanNUc3BhbjI3MDIiPumUmeivr+aMgee7reaXtumXtOaYr+WQpjwvdHNwYW4+PC90c3Bhbj48dHNwYW4geD0iNjQuNSIgZHk9IjE2LjI1IiBpZD0iU3ZnanNUc3BhbjI3MDMiPjx0c3BhbiBzdHlsZT0iIiBpZD0iU3ZnanNUc3BhbjI3MDQiPui+vuWIsOmYiOWAvDwvdHNwYW4+PC90c3Bhbj48L3RleHQ+PC9nPjwvZz48ZyBpZD0iU3ZnanNHMjcwNSI+PHBhdGggbWFya2VyLWVuZD0idXJsKCNTdmdqc01hcmtlcjI3MDcpIiBmaWxsPSJub25lIiBzdHJva2Utd2lkdGg9IjEuNSIgc3Ryb2tlPSIjMzIzMjMyIiBkPSJNODkuMzczMDEzNjAyMzYyODUgMzcxLjM5NDUwNTU3OTg3MjY2TDg5LjM3MzAxMzYwMjM2Mjg1IDM4Ni4yNTU1Mjc2NzU4MTgxNEw4OS4zNzMwMTM2MDIzNjI3OSAzODYuMjU1NTI3Njc1ODE4MTRMODkuMzczMDEzNjAyMzYyNzkgMzk5LjE2NjU0OTc3MTc2MzQ3IiBpZD0iU3ZnanNQYXRoMjcwNiIvPjwvZz48ZyBpZD0iU3ZnanNHMjcwOSI+PHBhdGggbWFya2VyLWVuZD0idXJsKCNTdmdqc01hcmtlcjI3MTEpIiBmaWxsPSJub25lIiBzdHJva2Utd2lkdGg9IjEuNSIgc3Ryb2tlPSIjMzIzMjMyIiBkPSJNMTU0LjQ5NjAyNzIwNDcyNTM1IDQzMi40MjIxMDUzMjczMTkyTDIzMS45OTYwMjcyMDQ3MjU0NiA0MzIuNDIyMTA1MzI3MzE5MkwyMzEuOTk2MDI3MjA0NzI1NDYgMzg0LjE0NDUwNTU3OTg3MjY2TDMwNy41NDYwMjcyMDQ3MjU1MyAzODQuMTQ0NTA1NTc5ODcyNjYiIGlkPSJTdmdqc1BhdGgyNzEwIi8+PHJlY3QgZmlsbD0iI2ZmZmZmZiIgeT0iNDIzLjQyMjEwNTMyNzMxOTIiIHg9IjE3MC4zODA0Njc4MzM0NzQxNyIgaGVpZ2h0PSIxOCIgd2lkdGg9IjEzLjQiIGlkPSJTdmdqc1JlY3QyNzEzIi8+PHRleHQgdHJhbnNmb3JtPSJyb3RhdGUoMCkiIHk9IjQyMC43OTcxMDUzMjczMTkyIiBvcGFjaXR5PSIxIiBmb250LXN0eWxlPSIiIHNpemU9IjEzcHgiIGFsaWduPSJ0b3AiIGZvbnQtd2VpZ2h0PSI0MDAiIGZpbGw9IiMyNjI2MjYiIHdpZHRoPSIxMy40cHgiIGZvbnQtc2l6ZT0iMTNweCIgdGV4dC1hbmNob3I9Im1pZGRsZSIgZm9udC1mYW1pbHk9IuWui+S9kyIgaWQ9IlN2Z2pzVGV4dDI3MTQiPjx0c3BhbiB4PSIxNzYuODgwNDY3ODMzNDc0MTciIGR5PSIxNi4yNSIgaWQ9IlN2Z2pzVHNwYW4yNzE1Ij48dHNwYW4gc3R5bGU9IiIgaWQ9IlN2Z2pzVHNwYW4yNzE2Ij7mmK88L3RzcGFuPjwvdHNwYW4+PC90ZXh0PjwvZz48ZyB0cmFuc2Zvcm09InRyYW5zbGF0ZSgxNzUuOTA5MzQxNzI4ODc2NDgsNTM5LjIwMjc1NzA5MDc3NzYpIiBpZD0iU3ZnanNHMjcxNyI+PHBhdGggZmlsbD0iI2ZmZmZmZiIgZmlsbC1vcGFjaXR5PSIxIiBzdHJva2Utd2lkdGg9IjEuNSIgc3Ryb2tlPSJyZ2JhKDMzLDQxLDQ4LDEpIiBkPSJNIDAgMzUuMzg3TCA1Ny4yNTMgMEwgMTE0LjUwNSAzNS4zODdMIDU3LjI1MyA3MC43NzRaIiBpZD0iU3ZnanNQYXRoMjcxOCIvPjxnIGlkPSJTdmdqc0cyNzE5Ij48dGV4dCB0cmFuc2Zvcm09InJvdGF0ZSgwKSIgeT0iMTYuNjE2IiBvcGFjaXR5PSIxIiBmb250LXN0eWxlPSIiIHNpemU9IjEzcHgiIGFsaWduPSJtaWRkbGUiIGZvbnQtd2VpZ2h0PSI0MDAiIGZpbGw9IiMyNjI2MjYiIHdpZHRoPSI5NXB4IiBmb250LXNpemU9IjEzcHgiIHRleHQtYW5jaG9yPSJtaWRkbGUiIGZvbnQtZmFtaWx5PSLlrovkvZMiIGlkPSJTdmdqc1RleHQyNzIwIj48dHNwYW4geD0iNTcuNSIgZHk9IjE2LjI1IiBpZD0iU3ZnanNUc3BhbjI3MjEiPjx0c3BhbiBzdHlsZT0iIiBpZD0iU3ZnanNUc3BhbjI3MjIiPuafpeivoue8uumZt+eKtuaAge+8jDwvdHNwYW4+PC90c3Bhbj48dHNwYW4geD0iNTcuNSIgZHk9IjE2LjI1IiBpZD0iU3ZnanNUc3BhbjI3MjMiPjx0c3BhbiBzdHlsZT0iIiBpZD0iU3ZnanNUc3BhbjI3MjQiPuaYr+WQpuato+WcqOWkhOeQhjwvdHNwYW4+PC90c3Bhbj48L3RleHQ+PC9nPjwvZz48ZyB0cmFuc2Zvcm09InRyYW5zbGF0ZSgzNi44NjQwODg5NzA1MTcyOSw1MjAuNDYyOTcwNTkyMzU3NSkiIGlkPSJTdmdqc0cyNzI1Ij48cGF0aCBmaWxsPSIjZmZmZmZmIiBmaWxsLW9wYWNpdHk9IjEiIHN0cm9rZS13aWR0aD0iMS41IiBzdHJva2U9InJnYmEoMzMsNDEsNDgsMSkiIGQ9Ik0gMCAyNy42OTNMIDUyLjUwOSAwTCAxMDUuMDE4IDI3LjY5M0wgNTIuNTA5IDU1LjM4N1oiIGlkPSJTdmdqc1BhdGgyNzI2Ii8+PGcgaWQ9IlN2Z2pzRzI3MjciPjx0ZXh0IHRyYW5zZm9ybT0icm90YXRlKDApIiB5PSIxNy4zNDUiIG9wYWNpdHk9IjEiIGZvbnQtc3R5bGU9IiIgc2l6ZT0iMTNweCIgYWxpZ249Im1pZGRsZSIgZm9udC13ZWlnaHQ9IjQwMCIgZmlsbD0iIzI2MjYyNiIgd2lkdGg9Ijg2cHgiIGZvbnQtc2l6ZT0iMTNweCIgdGV4dC1hbmNob3I9Im1pZGRsZSIgZm9udC1mYW1pbHk9IuWui+S9kyIgaWQ9IlN2Z2pzVGV4dDI3MjgiPjx0c3BhbiB4PSI1MyIgZHk9IjE2LjI1IiBpZD0iU3ZnanNUc3BhbjI3MjkiPjx0c3BhbiBzdHlsZT0iIiBpZD0iU3ZnanNUc3BhbjI3MzAiPuaYr+WQpuayiem7mOWRqOacnzwvdHNwYW4+PC90c3Bhbj48L3RleHQ+PC9nPjwvZz48ZyB0cmFuc2Zvcm09InRyYW5zbGF0ZSgyOTUuMTE0NDIyODUxMTM4NjcsNDI4LjYxMTExOTk0Mzk1MjQpIiBpZD0iU3ZnanNHMjczMSI+PHBhdGggZmlsbD0iI2ZmZmZmZiIgZmlsbC1vcGFjaXR5PSIxIiBzdHJva2Utd2lkdGg9IjEuNSIgc3Ryb2tlPSJyZ2JhKDMzLDQxLDQ4LDEpIiBkPSJNIDAgMjMuNDIxTCA2My4xMzIgMEwgMTI2LjI2MyAyMy40MjFMIDYzLjEzMiA0Ni44NDFaIiBpZD0iU3ZnanNQYXRoMjczMiIvPjxnIGlkPSJTdmdqc0cyNzMzIj48dGV4dCB0cmFuc2Zvcm09InJvdGF0ZSgwKSIgeT0iMTMuMDI5NSIgb3BhY2l0eT0iMSIgZm9udC1zdHlsZT0iIiBzaXplPSIxM3B4IiBhbGlnbj0ibWlkZGxlIiBmb250LXdlaWdodD0iNDAwIiBmaWxsPSIjMjYyNjI2IiB3aWR0aD0iMTA3cHgiIGZvbnQtc2l6ZT0iMTNweCIgdGV4dC1hbmNob3I9Im1pZGRsZSIgZm9udC1mYW1pbHk9IuWui+S9kyIgaWQ9IlN2Z2pzVGV4dDI3MzQiPjx0c3BhbiB4PSI2My41IiBkeT0iMTYuMjUiIGlkPSJTdmdqc1RzcGFuMjczNSI+PHRzcGFuIHN0eWxlPSIiIGlkPSJTdmdqc1RzcGFuMjczNiI+5piv5ZCm5Zyo5rKJ6buY5ZGo5pyfPC90c3Bhbj48L3RzcGFuPjwvdGV4dD48L2c+PC9nPjxnIGlkPSJTdmdqc0cyNzM3Ij48cGF0aCBtYXJrZXItZW5kPSJ1cmwoI1N2Z2pzTWFya2VyMjczOSkiIGZpbGw9Im5vbmUiIHN0cm9rZS13aWR0aD0iMS41IiBzdHJva2U9IiMzMjMyMzIiIGQ9Ik0yOTQuMzY0NDIyODUxMTM4NjcgNDUyLjAzMjExOTk0Mzk1MjQ3TDI2NS4xMTQ0MjI4NTExMzg2NyA0NTIuMDMyMTE5OTQzOTUyNDdMMjY1LjExNDQyMjg1MTEzODY3IDUwOC41NTc2ODkzNjY3NjI4TDIzMy4xNjIzNDE3Mjg4NzY1MyA1MDguNTU3Njg5MzY2NzYyOEwyMzMuMTYyMzQxNzI4ODc2NTMgNTM2LjUwMjc1NzA5MDc3NzUiIGlkPSJTdmdqc1BhdGgyNzM4Ii8+PC9nPjxnIGlkPSJTdmdqc0cyNzQxIj48cGF0aCBtYXJrZXItZW5kPSJ1cmwoI1N2Z2pzTWFya2VyMjc0MykiIGZpbGw9Im5vbmUiIHN0cm9rZS13aWR0aD0iMS41IiBzdHJva2U9IiMzMjMyMzIiIGQ9Ik0xNTkuNTE3ODU2NTk3OTAwNCAzMTIuNTc4NDM2OTM1NjQ5M0w4OS4zNzMwMTM2MDIzNjI3MyAzMTIuNTc4NDM2OTM1NjQ5M0w4OS4zNzMwMTM2MDIzNjI3MyAzNDAuOTQ0NTA1NTc5ODcyNjciIGlkPSJTdmdqc1BhdGgyNzQyIi8+PC9nPjxnIGlkPSJTdmdqc0cyNzQ1Ij48cGF0aCBtYXJrZXItZW5kPSJ1cmwoI1N2Z2pzTWFya2VyMjc0NykiIGZpbGw9Im5vbmUiIHN0cm9rZS13aWR0aD0iMS41IiBzdHJva2U9IiMzMjMyMzIiIGQ9Ik04OS4zNzI5OTk5OTk5OTk5OSA0NjMuNzI3NTQ5NzcxNzYzNUw4OS4zNzI5OTk5OTk5OTk5OSA0OTEuNzIwMjYwMTgyMDYwNTRMODkuMzczMDAxMTI3MDI1MzYgNDkxLjcyMDI2MDE4MjA2MDU0TDg5LjM3MzAwMTEyNzAyNTM2IDUxNy43NjI5NzA1OTIzNTc0IiBpZD0iU3ZnanNQYXRoMjc0NiIvPjxyZWN0IGZpbGw9IiNmZmZmZmYiIHk9IjQ3NC4wMTk0OTg1NDQ1Njk3MyIgeD0iODIuNjczMDAwNDAyMzc1MjIiIGhlaWdodD0iMTgiIHdpZHRoPSIxMy40IiBpZD0iU3ZnanNSZWN0Mjc0OSIvPjx0ZXh0IHRyYW5zZm9ybT0icm90YXRlKDApIiB5PSI0NzEuMzk0NDk4NTQ0NTY5NzMiIG9wYWNpdHk9IjEiIGZvbnQtc3R5bGU9IiIgc2l6ZT0iMTNweCIgYWxpZ249InRvcCIgZm9udC13ZWlnaHQ9IjQwMCIgZmlsbD0iIzI2MjYyNiIgd2lkdGg9IjEzLjRweCIgZm9udC1zaXplPSIxM3B4IiB0ZXh0LWFuY2hvcj0ibWlkZGxlIiBmb250LWZhbWlseT0i5a6L5L2TIiBpZD0iU3ZnanNUZXh0Mjc1MCI+PHRzcGFuIHg9Ijg5LjE3MzAwMDQwMjM3NTIyIiBkeT0iMTYuMjUiIGlkPSJTdmdqc1RzcGFuMjc1MSI+PHRzcGFuIHN0eWxlPSIiIGlkPSJTdmdqc1RzcGFuMjc1MiI+5ZCmPC90c3Bhbj48L3RzcGFuPjwvdGV4dD48L2c+PGcgaWQ9IlN2Z2pzRzI3NTMiPjxwYXRoIG1hcmtlci1lbmQ9InVybCgjU3ZnanNNYXJrZXIyNzU1KSIgZmlsbD0ibm9uZSIgc3Ryb2tlLXdpZHRoPSIxLjUiIHN0cm9rZT0iIzMyMzIzMiIgZD0iTTM1OC4yNDYwMjcyMDQ3MjU2IDM5OC4zOTQ1MDU1Nzk4NzI1NEwzNTguMjQ2MDI3MjA0NzI1NiA0MTMuMTI3ODEyNzYxOTEyNEwzNTguMjQ2MDI3MjA0NzI1NiA0MTMuMTI3ODEyNzYxOTEyNEwzNTguMjQ2MDI3MjA0NzI1NiA0MjUuOTExMTE5OTQzOTUyNCIgaWQ9IlN2Z2pzUGF0aDI3NTQiLz48L2c+PGcgdHJhbnNmb3JtPSJ0cmFuc2xhdGUoMTU5LjMwMTU4Mjc2MDI4MTI0LDY0My4wNTkwMzE5MjI4NzUxKSIgaWQ9IlN2Z2pzRzI3NTciPjxwYXRoIGZpbGw9IiNmZmZmZmYiIGZpbGwtb3BhY2l0eT0iMSIgc3Ryb2tlLXdpZHRoPSIxLjUiIHN0cm9rZT0icmdiYSgzMyw0MSw0OCwxKSIgZD0iTSAwIDBMIDE0Ny43MjEgMEwgMTQ3LjcyMSAyNy4xMTVMIDAgMjcuMTE1WiIgaWQ9IlN2Z2pzUGF0aDI3NTgiLz48ZyBpZD0iU3ZnanNHMjc1OSI+PHRleHQgdHJhbnNmb3JtPSJyb3RhdGUoMCkiIHk9IjMuNTU3NDk5OTk5OTk5OTk5IiBvcGFjaXR5PSIxIiBmb250LXN0eWxlPSIiIHNpemU9IjEycHgiIGFsaWduPSJtaWRkbGUiIGZvbnQtd2VpZ2h0PSI0MDAiIGZpbGw9IiMyNjI2MjYiIHdpZHRoPSIxMjhweCIgZm9udC1zaXplPSIxMnB4IiB0ZXh0LWFuY2hvcj0ibWlkZGxlIiBmb250LWZhbWlseT0i5a6L5L2TIiBpZD0iU3ZnanNUZXh0Mjc2MCI+PHRzcGFuIHg9Ijc0IiBkeT0iMTUiIGlkPSJTdmdqc1RzcGFuMjc2MSI+PHRzcGFuIHN0eWxlPSIiIGlkPSJTdmdqc1RzcGFuMjc2MiI+5ouo5omT55S16K+d6YCa55+lKOWPr+mFjee9rik8L3RzcGFuPjwvdHNwYW4+PC90ZXh0PjwvZz48L2c+PGcgdHJhbnNmb3JtPSJ0cmFuc2xhdGUoMTc3Ljk3NTQyOTU1NzYxODU1LDczMC40NTQ2NDI3MTMzNzM1KSIgaWQ9IlN2Z2pzRzI3NjMiPjxwYXRoIGZpbGw9IiNmZmZmZmYiIGZpbGwtb3BhY2l0eT0iMSIgc3Ryb2tlLXdpZHRoPSIxLjUiIHN0cm9rZT0icmdiYSgzMyw0MSw0OCwxKSIgZD0iTSAxMS42NzcgMEwgOTguNjk2IDBDIDExNC4yNjUgMCAxMTQuMjY1IDM1LjAzMiA5OC42OTYgMzUuMDMyTCAxMS42NzcgMzUuMDMyQyAtMy44OTIgMzUuMDMyIC0zLjg5MiAwIDExLjY3NyAwWiIgaWQ9IlN2Z2pzUGF0aDI3NjQiLz48ZyBpZD0iU3ZnanNHMjc2NSI+PHRleHQgdHJhbnNmb3JtPSJyb3RhdGUoMCkiIHk9IjYuODkwOTk5OTk5OTk5OTk4IiBvcGFjaXR5PSIxIiBmb250LXN0eWxlPSIiIHNpemU9IjEzcHgiIGFsaWduPSJtaWRkbGUiIGZvbnQtd2VpZ2h0PSI0MDAiIGZpbGw9IiMyNjI2MjYiIHdpZHRoPSI5MXB4IiBmb250LXNpemU9IjEzcHgiIHRleHQtYW5jaG9yPSJtaWRkbGUiIGZvbnQtZmFtaWx5PSLlrovkvZMiIGlkPSJTdmdqc1RleHQyNzY2Ij48dHNwYW4geD0iNTUuNSIgZHk9IjE2LjI1IiBpZD0iU3ZnanNUc3BhbjI3NjciPjx0c3BhbiBzdHlsZT0iIiBpZD0iU3ZnanNUc3BhbjI3NjgiPue7k+adnzwvdHNwYW4+PC90c3Bhbj48L3RleHQ+PC9nPjwvZz48ZyBpZD0iU3ZnanNHMjc2OSI+PHBhdGggbWFya2VyLWVuZD0idXJsKCNTdmdqc01hcmtlcjI3NzEpIiBmaWxsPSJub25lIiBzdHJva2Utd2lkdGg9IjEuNSIgc3Ryb2tlPSIjMzIzMjMyIiBkPSJNMjMzLjE2MjM0MTcyODg3NjUzIDYxMC43MjY3NTcwOTA3Nzc2TDIzMy4xNjIzNDE3Mjg4NzY1MyA2MjYuNTE3ODk0NTA2ODI2M0wyMzMuMTYyMzQxNzI4ODc2NCA2MjYuNTE3ODk0NTA2ODI2M0wyMzMuMTYyMzQxNzI4ODc2NCA2NDAuMzU5MDMxOTIyODc1IiBpZD0iU3ZnanNQYXRoMjc3MCIvPjwvZz48ZyBpZD0iU3ZnanNHMjc3MyI+PHBhdGggbWFya2VyLWVuZD0idXJsKCNTdmdqc01hcmtlcjI3NzUpIiBmaWxsPSJub25lIiBzdHJva2Utd2lkdGg9IjEuNSIgc3Ryb2tlPSIjMzIzMjMyIiBkPSJNMjMzLjE2MTU4Mjc2MDI4MTI1IDY3MC45MjQwMzE5MjI4NzUxTDIzMy4xNjE1ODI3NjAyODEyNSA3MDAuMzE0MzM3MzE4MTI0M0wyMzMuMTYxNTgyNzYwMjgxMTQgNzAwLjMxNDMzNzMxODEyNDNMMjMzLjE2MTU4Mjc2MDI4MTE0IDcyNy43NTQ2NDI3MTMzNzM0IiBpZD0iU3ZnanNQYXRoMjc3NCIvPjwvZz48ZyBpZD0iU3ZnanNHMjc3NyI+PHBhdGggbWFya2VyLWVuZD0idXJsKCNTdmdqc01hcmtlcjI3NzkpIiBmaWxsPSJub25lIiBzdHJva2Utd2lkdGg9IjEuNSIgc3Ryb2tlPSIjMzIzMjMyIiBkPSJNMTQyLjA0MzcwMjk0MDA5MDYgNTQ4LjE1NjQ1MDU4NjIwNjlMMTU4LjYwMTUyMjMzNDQ4MzU1IDU0OC4xNTY0NTA1ODYyMDY5TDE1OC42MDE1MjIzMzQ0ODM1NSA1MDkuMDYzNDM4MjA1MzI4NTdMMjMzLjE2MjM0MTcyODg3NjUzIDUwOS4wNjM0MzgyMDUzMjg1N0wyMzMuMTYyMzQxNzI4ODc2NTMgNTM2LjUwMjc1NzA5MDc3NzUiIGlkPSJTdmdqc1BhdGgyNzc4Ii8+PHJlY3QgZmlsbD0iI2ZmZmZmZiIgeT0iNTE4Ljc0NzE5NDAzNTQxOTUiIHg9IjE1MS45MDE1MjIzMzQ0ODM1NiIgaGVpZ2h0PSIxOCIgd2lkdGg9IjEzLjQiIGlkPSJTdmdqc1JlY3QyNzgxIi8+PHRleHQgdHJhbnNmb3JtPSJyb3RhdGUoMCkiIHk9IjUxNi4xMjIxOTQwMzU0MTk1IiBvcGFjaXR5PSIxIiBmb250LXN0eWxlPSIiIHNpemU9IjEzcHgiIGFsaWduPSJ0b3AiIGZvbnQtd2VpZ2h0PSI0MDAiIGZpbGw9IiMzMjMyMzIiIHdpZHRoPSIxMy40cHgiIGZvbnQtc2l6ZT0iMTNweCIgdGV4dC1hbmNob3I9Im1pZGRsZSIgZm9udC1mYW1pbHk9IuWui+S9kyIgaWQ9IlN2Z2pzVGV4dDI3ODIiPjx0c3BhbiB4PSIxNTguNDAxNTIyMzM0NDgzNTYiIGR5PSIxNi4yNSIgaWQ9IlN2Z2pzVHNwYW4yNzgzIj48dHNwYW4gc3R5bGU9IiIgaWQ9IlN2Z2pzVHNwYW4yNzg0Ij7lkKY8L3RzcGFuPjwvdHNwYW4+PC90ZXh0PjwvZz48ZyBpZD0iU3ZnanNHMjc4NSI+PHBhdGggbWFya2VyLWVuZD0idXJsKCNTdmdqc01hcmtlcjI3ODcpIiBmaWxsPSJub25lIiBzdHJva2Utd2lkdGg9IjEuNSIgc3Ryb2tlPSIjMzIzMjMyIiBkPSJNODkuMzczMDg4OTcwNTE3MyA1NzYuNTk5OTcwNTkyMzU3NEw4OS4zNzMwODg5NzA1MTczIDY4OC43NDA1NDE5NDY5ODMxTDIzMy4xNjI0Mjk1NTc2MTg1NyA2ODguNzQwNTQxOTQ2OTgzMUwyMzMuMTYyNDI5NTU3NjE4NTcgNzI3Ljc1NDY0MjcxMzM3MzQiIGlkPSJTdmdqc1BhdGgyNzg2Ii8+PHJlY3QgZmlsbD0iI2ZmZmZmZiIgeT0iNTk1LjAxMTI0MjM4NjkxMDgiIHg9IjgyLjY3MzA4ODk3MDUxNzMiIGhlaWdodD0iMTgiIHdpZHRoPSIxMy40IiBpZD0iU3ZnanNSZWN0Mjc4OSIvPjx0ZXh0IHRyYW5zZm9ybT0icm90YXRlKDApIiB5PSI1OTIuMzg2MjQyMzg2OTEwOCIgb3BhY2l0eT0iMSIgZm9udC1zdHlsZT0iIiBzaXplPSIxM3B4IiBhbGlnbj0idG9wIiBmb250LXdlaWdodD0iNDAwIiBmaWxsPSIjMzIzMjMyIiB3aWR0aD0iMTMuNHB4IiBmb250LXNpemU9IjEzcHgiIHRleHQtYW5jaG9yPSJtaWRkbGUiIGZvbnQtZmFtaWx5PSLlrovkvZMiIGlkPSJTdmdqc1RleHQyNzkwIj48dHNwYW4geD0iODkuMTczMDg4OTcwNTE3MyIgZHk9IjE2LjI1IiBpZD0iU3ZnanNUc3BhbjI3OTEiPjx0c3BhbiBzdHlsZT0iIiBpZD0iU3ZnanNUc3BhbjI3OTIiPuaYrzwvdHNwYW4+PC90c3Bhbj48L3RleHQ+PC9nPjxnIGlkPSJTdmdqc0cyNzkzIj48cGF0aCBtYXJrZXItZW5kPSJ1cmwoI1N2Z2pzTWFya2VyMjc5NSkiIGZpbGw9Im5vbmUiIHN0cm9rZS13aWR0aD0iMS41IiBzdHJva2U9IiMzMjMyMzIiIGQ9Ik0zNTguMjQ2NDIyODUxMTM4NiA0NzYuMjAyMTE5OTQzOTUyNEwzNTguMjQ2NDIyODUxMTM4NiA2ODguNjk4NzQzMzAxMzkyTDIzMy4xNjI0Mjk1NTc2MTg1NyA2ODguNjk4NzQzMzAxMzkyTDIzMy4xNjI0Mjk1NTc2MTg1NyA3MjcuNzU0NjQyNzEzMzczNCIgaWQ9IlN2Z2pzUGF0aDI3OTQiLz48cmVjdCBmaWxsPSIjZmZmZmZmIiB5PSI0OTYuMDc3MzM4MjE3NjA3NiIgeD0iMzUxLjU0NjQyMjg1MTEzODYzIiBoZWlnaHQ9IjE4IiB3aWR0aD0iMTMuNCIgaWQ9IlN2Z2pzUmVjdDI3OTciLz48dGV4dCB0cmFuc2Zvcm09InJvdGF0ZSgwKSIgeT0iNDkzLjQ1MjMzODIxNzYwNzYiIG9wYWNpdHk9IjEiIGZvbnQtc3R5bGU9IiIgc2l6ZT0iMTNweCIgYWxpZ249InRvcCIgZm9udC13ZWlnaHQ9IjQwMCIgZmlsbD0iIzMyMzIzMiIgd2lkdGg9IjEzLjRweCIgZm9udC1zaXplPSIxM3B4IiB0ZXh0LWFuY2hvcj0ibWlkZGxlIiBmb250LWZhbWlseT0i5a6L5L2TIiBpZD0iU3ZnanNUZXh0Mjc5OCI+PHRzcGFuIHg9IjM1OC4wNDY0MjI4NTExMzg2MyIgZHk9IjE2LjI1IiBpZD0iU3ZnanNUc3BhbjI3OTkiPjx0c3BhbiBzdHlsZT0iIiBpZD0iU3ZnanNUc3BhbjI4MDAiPuaYrzwvdHNwYW4+PC90c3Bhbj48L3RleHQ+PC9nPjxnIHRyYW5zZm9ybT0idHJhbnNsYXRlKDE4OC4xMzQ1NjQzMzExNDQ4MiwyMjEuMzYwMzczMzgyNDQ5NTUpIiBpZD0iU3ZnanNHMjgwMSI+PHBhdGggZmlsbD0ibm9uZSIgc3Ryb2tlPSJub25lIiBkPSJNIDAgMEwgOTUuODY3IDBMIDk1Ljg2NyA0MC4xMTZMIDAgNDAuMTE2WiIgaWQ9IlN2Z2pzUGF0aDI4MDIiLz48ZyBpZD0iU3ZnanNHMjgwMyI+PHRleHQgdHJhbnNmb3JtPSJyb3RhdGUoMCkiIHk9IjkuNDMzIiBvcGFjaXR5PSIxIiBmb250LXN0eWxlPSIiIHNpemU9IjEzcHgiIGFsaWduPSJtaWRkbGUiIGZvbnQtd2VpZ2h0PSI0MDAiIGZpbGw9IiMzMjMyMzIiIHdpZHRoPSI5NnB4IiBmb250LXNpemU9IjEzcHgiIHRleHQtYW5jaG9yPSJtaWRkbGUiIGZvbnQtZmFtaWx5PSImcXVvdDtUaW1lcyBOZXcgUm9tYW4mcXVvdDsiIGlkPSJTdmdqc1RleHQyODA0Ij48dHNwYW4geD0iNDgiIGR5PSIxNi4yNSIgaWQ9IlN2Z2pzVHNwYW4yODA1Ij48dHNwYW4gc3R5bGU9IiIgaWQ9IlN2Z2pzVHNwYW4yODA2Ij5SZWRpczwvdHNwYW4+PC90c3Bhbj48L3RleHQ+PC9nPjwvZz48ZyB0cmFuc2Zvcm09InRyYW5zbGF0ZSgxNTkuOTM0NTIzMjY0NTY3MDIsMjIxLjU2Nzg3MzUzMDI0MjY1KSIgaWQ9IlN2Z2pzRzI4MDciPjxwYXRoIGZpbGw9Im5vbmUiIHN0cm9rZT0ibm9uZSIgZD0iTSAwIDBMIDk1Ljg2NyAwTCA5NS44NjcgNDAuMTE2TCAwIDQwLjExNloiIGlkPSJTdmdqc1BhdGgyODA4Ii8+PGcgaWQ9IlN2Z2pzRzI4MDkiPjx0ZXh0IHRyYW5zZm9ybT0icm90YXRlKDApIiB5PSI5LjQzMyIgb3BhY2l0eT0iMSIgZm9udC1zdHlsZT0iIiBzaXplPSIxM3B4IiBhbGlnbj0ibWlkZGxlIiBmb250LXdlaWdodD0iNDAwIiBmaWxsPSIjMzIzMjMyIiB3aWR0aD0iOTZweCIgZm9udC1zaXplPSIxM3B4IiB0ZXh0LWFuY2hvcj0ibWlkZGxlIiBmb250LWZhbWlseT0i5a6L5L2TIiBpZD0iU3ZnanNUZXh0MjgxMCI+PHRzcGFuIHg9IjQ4IiBkeT0iMTYuMjUiIGlkPSJTdmdqc1RzcGFuMjgxMSI+PHRzcGFuIHN0eWxlPSIiIGlkPSJTdmdqc1RzcGFuMjgxMiI+5a2Y5YWlPC90c3Bhbj48L3RzcGFuPjwvdGV4dD48L2c+PC9nPjxnIGlkPSJTdmdqc0cyODEzIi8+PC9zdmc+;" vertex="1" parent="1">
          <mxGeometry width="448" height="792" as="geometry" />
        </mxCell>
      </root>
    </mxGraphModel>
  </diagram>
</mxfile>
